<svg version="1.1" xmlns="http://www.w3.org/2000/svg" xmlns:xlink="http://www.w3.org/1999/xlink" x="0px" y="0px"
	 viewBox="0 0 1024 1024" style="enable-background:new 0 0 1024 1024;" xml:space="preserve">
<style type="text/css">
	.st0{opacity:0.2;fill:#ED7F03;enable-background:new    ;}
	.st1{opacity:0.6;fill:#ED7F03;enable-background:new    ;}
	.st2{fill:#ED7F03;}
</style>
<g id="butteruitvaart-lines">
	<path id="line-6" class="st0" d="M979.5,759.4L832.8,303c-2.2,2.4-4.5,4.7-6.9,7.1l144.5,449.4H979.5z"/>
	<path id="line-5" class="st1" d="M770.6,759.4l14.1-421.3c-2.8,1.3-5.8,2.5-8.8,3.8L762,759.4H770.6z"/>
	<path id="line-4" class="st2" d="M593.1,759.4l130.2-407.9h-0.2c-3,0-6-0.2-8.8-0.3L584,759.4H593.1z"/>
	<path id="line-3_1_" class="st2" d="M389.5,759.4L663.6,339c-2.7-1.1-5.3-2.4-7.8-3.8L379.2,759.4H389.5z"/>
	<path id="line-2" class="st1" d="M223,759.4l396.9-449.7c-2-2-4.1-4.1-6.1-6.3l-402.4,456H223z"/>
	<path id="line-1" class="st0" d="M52.3,759.4l537.1-491.5c-1.3-2.7-2.5-5.5-3.8-8.3L39.5,759.4H52.3z"/>
</g>
</svg>
